<?xml version="1.0" encoding="UTF-8" standalone="no"?><svg xmlns="http://www.w3.org/2000/svg" xmlns:xlink="http://www.w3.org/1999/xlink" contentScriptType="application/ecmascript" contentStyleType="text/css" height="175px" preserveAspectRatio="none" style="width:185px;height:175px;" version="1.1" viewBox="0 0 185 175" width="185px" zoomAndPan="magnify"><defs><filter height="300%" id="fjyep7sslrprl" width="300%" x="-1" y="-1"><feGaussianBlur result="blurOut" stdDeviation="2.0"/><feColorMatrix in="blurOut" result="blurOut2" type="matrix" values="0 0 0 0 0 0 0 0 0 0 0 0 0 0 0 0 0 0 .4 0"/><feOffset dx="4.0" dy="4.0" in="blurOut2" result="blurOut3"/><feBlend in="SourceGraphic" in2="blurOut3" mode="normal"/></filter></defs><g><!--class Mammifere--><rect fill="#FEFECE" filter="url(#fjyep7sslrprl)" height="48" id="Mammifere" style="stroke: #A80036; stroke-width: 1.5;" width="100" x="45" y="8"/><ellipse cx="60" cy="24" fill="#ADD1B2" rx="11" ry="11" style="stroke: #A80036; stroke-width: 1.0;"/><path d="M62.9688,29.6406 Q62.3906,29.9375 61.75,30.0781 Q61.1094,30.2344 60.4063,30.2344 Q57.9063,30.2344 56.5781,28.5938 Q55.2656,26.9375 55.2656,23.8125 Q55.2656,20.6875 56.5781,19.0313 Q57.9063,17.375 60.4063,17.375 Q61.1094,17.375 61.75,17.5313 Q62.4063,17.6875 62.9688,17.9844 L62.9688,20.7031 Q62.3438,20.125 61.75,19.8594 Q61.1563,19.5781 60.5313,19.5781 Q59.1875,19.5781 58.5,20.6563 Q57.8125,21.7188 57.8125,23.8125 Q57.8125,25.9063 58.5,26.9844 Q59.1875,28.0469 60.5313,28.0469 Q61.1563,28.0469 61.75,27.7813 Q62.3438,27.5 62.9688,26.9219 L62.9688,29.6406 Z "/><text fill="#000000" font-family="sans-serif" font-size="12" lengthAdjust="spacingAndGlyphs" textLength="68" x="74" y="28.1543">Mammifere</text><line style="stroke: #A80036; stroke-width: 1.5;" x1="46" x2="144" y1="40" y2="40"/><line style="stroke: #A80036; stroke-width: 1.5;" x1="46" x2="144" y1="48" y2="48"/><!--class Person--><rect fill="#FEFECE" filter="url(#fjyep7sslrprl)" height="48" id="Person" style="stroke: #A80036; stroke-width: 1.5;" width="76" x="6" y="116"/><ellipse cx="21" cy="132" fill="#ADD1B2" rx="11" ry="11" style="stroke: #A80036; stroke-width: 1.0;"/><path d="M23.9688,137.6406 Q23.3906,137.9375 22.75,138.0781 Q22.1094,138.2344 21.4063,138.2344 Q18.9063,138.2344 17.5781,136.5938 Q16.2656,134.9375 16.2656,131.8125 Q16.2656,128.6875 17.5781,127.0313 Q18.9063,125.375 21.4063,125.375 Q22.1094,125.375 22.75,125.5313 Q23.4063,125.6875 23.9688,125.9844 L23.9688,128.7031 Q23.3438,128.125 22.75,127.8594 Q22.1563,127.5781 21.5313,127.5781 Q20.1875,127.5781 19.5,128.6563 Q18.8125,129.7188 18.8125,131.8125 Q18.8125,133.9063 19.5,134.9844 Q20.1875,136.0469 21.5313,136.0469 Q22.1563,136.0469 22.75,135.7813 Q23.3438,135.5 23.9688,134.9219 L23.9688,137.6406 Z "/><text fill="#000000" font-family="sans-serif" font-size="12" lengthAdjust="spacingAndGlyphs" textLength="44" x="35" y="136.1543">Person</text><line style="stroke: #A80036; stroke-width: 1.5;" x1="7" x2="81" y1="148" y2="148"/><line style="stroke: #A80036; stroke-width: 1.5;" x1="7" x2="81" y1="156" y2="156"/><!--class Dog--><rect fill="#FEFECE" filter="url(#fjyep7sslrprl)" height="48" id="Dog" style="stroke: #A80036; stroke-width: 1.5;" width="57" x="117.5" y="116"/><ellipse cx="132.5" cy="132" fill="#ADD1B2" rx="11" ry="11" style="stroke: #A80036; stroke-width: 1.0;"/><path d="M135.4688,137.6406 Q134.8906,137.9375 134.25,138.0781 Q133.6094,138.2344 132.9063,138.2344 Q130.4063,138.2344 129.0781,136.5938 Q127.7656,134.9375 127.7656,131.8125 Q127.7656,128.6875 129.0781,127.0313 Q130.4063,125.375 132.9063,125.375 Q133.6094,125.375 134.25,125.5313 Q134.9063,125.6875 135.4688,125.9844 L135.4688,128.7031 Q134.8438,128.125 134.25,127.8594 Q133.6563,127.5781 133.0313,127.5781 Q131.6875,127.5781 131,128.6563 Q130.3125,129.7188 130.3125,131.8125 Q130.3125,133.9063 131,134.9844 Q131.6875,136.0469 133.0313,136.0469 Q133.6563,136.0469 134.25,135.7813 Q134.8438,135.5 135.4688,134.9219 L135.4688,137.6406 Z "/><text fill="#000000" font-family="sans-serif" font-size="12" lengthAdjust="spacingAndGlyphs" textLength="25" x="146.5" y="136.1543">Dog</text><line style="stroke: #A80036; stroke-width: 1.5;" x1="118.5" x2="173.5" y1="148" y2="148"/><line style="stroke: #A80036; stroke-width: 1.5;" x1="118.5" x2="173.5" y1="156" y2="156"/><!--link Mammifere to Person--><path d="M75.2285,74.0936 C68.4436,88.1958 61.088,103.4838 55.2208,115.6784 " fill="none" id="Mammifere-Person" style="stroke: #A80036; stroke-width: 1.0;"/><polygon fill="none" points="68.9546,70.988,83.9338,56,81.5704,77.0579,68.9546,70.988" style="stroke: #A80036; stroke-width: 1.0;"/><!--link Mammifere to Dog--><path d="M114.771,74.0936 C121.556,88.1958 128.912,103.4838 134.779,115.6784 " fill="none" id="Mammifere-Dog" style="stroke: #A80036; stroke-width: 1.0;"/><polygon fill="none" points="108.43,77.0579,106.066,56,121.045,70.988,108.43,77.0579" style="stroke: #A80036; stroke-width: 1.0;"/><!--
@startuml
class Mammifere
class Person extends Mammifere
class Dog extends Mammifere
@enduml

PlantUML version 1.2018.10(Sat Aug 25 19:02:59 CEST 2018)
(APACHE source distribution)
Java Runtime: Java(TM) SE Runtime Environment
JVM: Java HotSpot(TM) 64-Bit Server VM
Java Version: 11.0.1+13-LTS
Operating System: Linux
OS Version: 4.9.0-8-amd64
Default Encoding: UTF-8
Language: fr
Country: FR
--></g></svg>