<?xml version="1.0" encoding="UTF-8" standalone="no"?><svg xmlns="http://www.w3.org/2000/svg" xmlns:xlink="http://www.w3.org/1999/xlink" contentScriptType="application/ecmascript" contentStyleType="text/css" height="226px" preserveAspectRatio="none" style="width:191px;height:226px;" version="1.1" viewBox="0 0 191 226" width="191px" zoomAndPan="magnify"><defs><filter height="300%" id="f1ql6ei4f66cqv" width="300%" x="-1" y="-1"><feGaussianBlur result="blurOut" stdDeviation="2.0"/><feColorMatrix in="blurOut" result="blurOut2" type="matrix" values="0 0 0 0 0 0 0 0 0 0 0 0 0 0 0 0 0 0 .4 0"/><feOffset dx="4.0" dy="4.0" in="blurOut2" result="blurOut3"/><feBlend in="SourceGraphic" in2="blurOut3" mode="normal"/></filter></defs><g><!--class Mammifere--><rect fill="#FEFECE" filter="url(#f1ql6ei4f66cqv)" height="73.6094" id="Mammifere" style="stroke: #A80036; stroke-width: 1.5;" width="100" x="48.5" y="8"/><ellipse cx="63.5" cy="24" fill="#ADD1B2" rx="11" ry="11" style="stroke: #A80036; stroke-width: 1.0;"/><path d="M66.4688,29.6406 Q65.8906,29.9375 65.25,30.0781 Q64.6094,30.2344 63.9063,30.2344 Q61.4063,30.2344 60.0781,28.5938 Q58.7656,26.9375 58.7656,23.8125 Q58.7656,20.6875 60.0781,19.0313 Q61.4063,17.375 63.9063,17.375 Q64.6094,17.375 65.25,17.5313 Q65.9063,17.6875 66.4688,17.9844 L66.4688,20.7031 Q65.8438,20.125 65.25,19.8594 Q64.6563,19.5781 64.0313,19.5781 Q62.6875,19.5781 62,20.6563 Q61.3125,21.7188 61.3125,23.8125 Q61.3125,25.9063 62,26.9844 Q62.6875,28.0469 64.0313,28.0469 Q64.6563,28.0469 65.25,27.7813 Q65.8438,27.5 66.4688,26.9219 L66.4688,29.6406 Z "/><text fill="#000000" font-family="sans-serif" font-size="12" lengthAdjust="spacingAndGlyphs" textLength="68" x="77.5" y="28.1543">Mammifere</text><line style="stroke: #A80036; stroke-width: 1.5;" x1="49.5" x2="147.5" y1="40" y2="40"/><rect fill="none" height="6" style="stroke: #C82930; stroke-width: 1.0;" width="6" x="56.5" y="48.9023"/><text fill="#000000" font-family="sans-serif" font-size="11" lengthAdjust="spacingAndGlyphs" textLength="25" x="68.5" y="54.2104">year</text><rect fill="none" height="6" style="stroke: #C82930; stroke-width: 1.0;" width="6" x="56.5" y="61.707"/><text fill="#000000" font-family="sans-serif" font-size="11" lengthAdjust="spacingAndGlyphs" textLength="27" x="68.5" y="67.0151">sexe</text><line style="stroke: #A80036; stroke-width: 1.5;" x1="49.5" x2="147.5" y1="73.6094" y2="73.6094"/><!--class Person--><rect fill="#FEFECE" filter="url(#f1ql6ei4f66cqv)" height="73.6094" id="Person" style="stroke: #A80036; stroke-width: 1.5;" width="81" x="6" y="142"/><ellipse cx="23.25" cy="158" fill="#ADD1B2" rx="11" ry="11" style="stroke: #A80036; stroke-width: 1.0;"/><path d="M26.2188,163.6406 Q25.6406,163.9375 25,164.0781 Q24.3594,164.2344 23.6563,164.2344 Q21.1563,164.2344 19.8281,162.5938 Q18.5156,160.9375 18.5156,157.8125 Q18.5156,154.6875 19.8281,153.0313 Q21.1563,151.375 23.6563,151.375 Q24.3594,151.375 25,151.5313 Q25.6563,151.6875 26.2188,151.9844 L26.2188,154.7031 Q25.5938,154.125 25,153.8594 Q24.4063,153.5781 23.7813,153.5781 Q22.4375,153.5781 21.75,154.6563 Q21.0625,155.7188 21.0625,157.8125 Q21.0625,159.9063 21.75,160.9844 Q22.4375,162.0469 23.7813,162.0469 Q24.4063,162.0469 25,161.7813 Q25.5938,161.5 26.2188,160.9219 L26.2188,163.6406 Z "/><text fill="#000000" font-family="sans-serif" font-size="12" lengthAdjust="spacingAndGlyphs" textLength="44" x="37.75" y="162.1543">Person</text><line style="stroke: #A80036; stroke-width: 1.5;" x1="7" x2="86" y1="174" y2="174"/><rect fill="none" height="6" style="stroke: #C82930; stroke-width: 1.0;" width="6" x="14" y="182.9023"/><text fill="#000000" font-family="sans-serif" font-size="11" lengthAdjust="spacingAndGlyphs" textLength="55" x="26" y="188.2104">firstname</text><rect fill="none" height="6" style="stroke: #C82930; stroke-width: 1.0;" width="6" x="14" y="195.707"/><text fill="#000000" font-family="sans-serif" font-size="11" lengthAdjust="spacingAndGlyphs" textLength="53" x="26" y="201.0151">lastname</text><line style="stroke: #A80036; stroke-width: 1.5;" x1="7" x2="86" y1="207.6094" y2="207.6094"/><!--class Dog--><rect fill="#FEFECE" filter="url(#f1ql6ei4f66cqv)" height="60.8047" id="Dog" style="stroke: #A80036; stroke-width: 1.5;" width="58" x="122.5" y="148.5"/><ellipse cx="137.95" cy="164.5" fill="#ADD1B2" rx="11" ry="11" style="stroke: #A80036; stroke-width: 1.0;"/><path d="M140.9188,170.1406 Q140.3406,170.4375 139.7,170.5781 Q139.0594,170.7344 138.3563,170.7344 Q135.8563,170.7344 134.5281,169.0938 Q133.2156,167.4375 133.2156,164.3125 Q133.2156,161.1875 134.5281,159.5313 Q135.8563,157.875 138.3563,157.875 Q139.0594,157.875 139.7,158.0313 Q140.3563,158.1875 140.9188,158.4844 L140.9188,161.2031 Q140.2938,160.625 139.7,160.3594 Q139.1063,160.0781 138.4813,160.0781 Q137.1375,160.0781 136.45,161.1563 Q135.7625,162.2188 135.7625,164.3125 Q135.7625,166.4063 136.45,167.4844 Q137.1375,168.5469 138.4813,168.5469 Q139.1063,168.5469 139.7,168.2813 Q140.2938,168 140.9188,167.4219 L140.9188,170.1406 Z "/><text fill="#000000" font-family="sans-serif" font-size="12" lengthAdjust="spacingAndGlyphs" textLength="25" x="152.05" y="168.6543">Dog</text><line style="stroke: #A80036; stroke-width: 1.5;" x1="123.5" x2="179.5" y1="180.5" y2="180.5"/><rect fill="none" height="6" style="stroke: #C82930; stroke-width: 1.0;" width="6" x="130.5" y="189.4023"/><text fill="#000000" font-family="sans-serif" font-size="11" lengthAdjust="spacingAndGlyphs" textLength="32" x="142.5" y="194.7104">name</text><line style="stroke: #A80036; stroke-width: 1.5;" x1="123.5" x2="179.5" y1="201.3047" y2="201.3047"/><!--link Mammifere to Person--><path d="M76.8554,100.944 C71.3982,114.797 65.6774,129.3189 60.692,141.974 " fill="none" id="Mammifere-Person" style="stroke: #A80036; stroke-width: 1.0;"/><polygon fill="none" points="70.4474,98.112,84.2908,82.07,83.4731,103.243,70.4474,98.112" style="stroke: #A80036; stroke-width: 1.0;"/><!--link Mammifere to Dog--><path d="M120.501,100.795 C127.02,117.031 133.913,134.1987 139.54,148.212 " fill="none" id="Mammifere-Dog" style="stroke: #A80036; stroke-width: 1.0;"/><polygon fill="none" points="113.939,103.238,112.982,82.07,126.931,98.021,113.939,103.238" style="stroke: #A80036; stroke-width: 1.0;"/><!--
@startuml
class Mammifere {
- year
- sexe
}
class Person extends Mammifere {
- firstname
- lastname
}
class Dog extends Mammifere {
- name
}
@enduml

PlantUML version 1.2018.10(Sat Aug 25 19:02:59 CEST 2018)
(APACHE source distribution)
Java Runtime: Java(TM) SE Runtime Environment
JVM: Java HotSpot(TM) 64-Bit Server VM
Java Version: 11.0.1+13-LTS
Operating System: Linux
OS Version: 4.9.0-8-amd64
Default Encoding: UTF-8
Language: fr
Country: FR
--></g></svg>