<?xml version="1.0" encoding="UTF-8" standalone="no"?><svg xmlns="http://www.w3.org/2000/svg" xmlns:xlink="http://www.w3.org/1999/xlink" contentScriptType="application/ecmascript" contentStyleType="text/css" height="239px" preserveAspectRatio="none" style="width:253px;height:239px;" version="1.1" viewBox="0 0 253 239" width="253px" zoomAndPan="magnify"><defs><filter height="300%" id="f1uixryh1cmuq1" width="300%" x="-1" y="-1"><feGaussianBlur result="blurOut" stdDeviation="2.0"/><feColorMatrix in="blurOut" result="blurOut2" type="matrix" values="0 0 0 0 0 0 0 0 0 0 0 0 0 0 0 0 0 0 .4 0"/><feOffset dx="4.0" dy="4.0" in="blurOut2" result="blurOut3"/><feBlend in="SourceGraphic" in2="blurOut3" mode="normal"/></filter></defs><g><!--class Mammifere--><rect fill="#FEFECE" filter="url(#f1uixryh1cmuq1)" height="73.6094" id="Mammifere" style="stroke: #A80036; stroke-width: 1.5;" width="100" x="64.5" y="8"/><ellipse cx="79.5" cy="24" fill="#ADD1B2" rx="11" ry="11" style="stroke: #A80036; stroke-width: 1.0;"/><path d="M82.4688,29.6406 Q81.8906,29.9375 81.25,30.0781 Q80.6094,30.2344 79.9063,30.2344 Q77.4063,30.2344 76.0781,28.5938 Q74.7656,26.9375 74.7656,23.8125 Q74.7656,20.6875 76.0781,19.0313 Q77.4063,17.375 79.9063,17.375 Q80.6094,17.375 81.25,17.5313 Q81.9063,17.6875 82.4688,17.9844 L82.4688,20.7031 Q81.8438,20.125 81.25,19.8594 Q80.6563,19.5781 80.0313,19.5781 Q78.6875,19.5781 78,20.6563 Q77.3125,21.7188 77.3125,23.8125 Q77.3125,25.9063 78,26.9844 Q78.6875,28.0469 80.0313,28.0469 Q80.6563,28.0469 81.25,27.7813 Q81.8438,27.5 82.4688,26.9219 L82.4688,29.6406 Z "/><text fill="#000000" font-family="sans-serif" font-size="12" lengthAdjust="spacingAndGlyphs" textLength="68" x="93.5" y="28.1543">Mammifere</text><line style="stroke: #A80036; stroke-width: 1.5;" x1="65.5" x2="163.5" y1="40" y2="40"/><rect fill="none" height="6" style="stroke: #C82930; stroke-width: 1.0;" width="6" x="72.5" y="48.9023"/><text fill="#000000" font-family="sans-serif" font-size="11" lengthAdjust="spacingAndGlyphs" textLength="25" x="84.5" y="54.2104">year</text><rect fill="none" height="6" style="stroke: #C82930; stroke-width: 1.0;" width="6" x="72.5" y="61.707"/><text fill="#000000" font-family="sans-serif" font-size="11" lengthAdjust="spacingAndGlyphs" textLength="27" x="84.5" y="67.0151">sexe</text><line style="stroke: #A80036; stroke-width: 1.5;" x1="65.5" x2="163.5" y1="73.6094" y2="73.6094"/><!--class Person--><rect fill="#FEFECE" filter="url(#f1uixryh1cmuq1)" height="73.6094" id="Person" style="stroke: #A80036; stroke-width: 1.5;" width="81" x="6" y="148"/><ellipse cx="23.25" cy="164" fill="#ADD1B2" rx="11" ry="11" style="stroke: #A80036; stroke-width: 1.0;"/><path d="M26.2188,169.6406 Q25.6406,169.9375 25,170.0781 Q24.3594,170.2344 23.6563,170.2344 Q21.1563,170.2344 19.8281,168.5938 Q18.5156,166.9375 18.5156,163.8125 Q18.5156,160.6875 19.8281,159.0313 Q21.1563,157.375 23.6563,157.375 Q24.3594,157.375 25,157.5313 Q25.6563,157.6875 26.2188,157.9844 L26.2188,160.7031 Q25.5938,160.125 25,159.8594 Q24.4063,159.5781 23.7813,159.5781 Q22.4375,159.5781 21.75,160.6563 Q21.0625,161.7188 21.0625,163.8125 Q21.0625,165.9063 21.75,166.9844 Q22.4375,168.0469 23.7813,168.0469 Q24.4063,168.0469 25,167.7813 Q25.5938,167.5 26.2188,166.9219 L26.2188,169.6406 Z "/><text fill="#000000" font-family="sans-serif" font-size="12" lengthAdjust="spacingAndGlyphs" textLength="44" x="37.75" y="168.1543">Person</text><line style="stroke: #A80036; stroke-width: 1.5;" x1="7" x2="86" y1="180" y2="180"/><rect fill="none" height="6" style="stroke: #C82930; stroke-width: 1.0;" width="6" x="14" y="188.9023"/><text fill="#000000" font-family="sans-serif" font-size="11" lengthAdjust="spacingAndGlyphs" textLength="55" x="26" y="194.2104">firstname</text><rect fill="none" height="6" style="stroke: #C82930; stroke-width: 1.0;" width="6" x="14" y="201.707"/><text fill="#000000" font-family="sans-serif" font-size="11" lengthAdjust="spacingAndGlyphs" textLength="53" x="26" y="207.0151">lastname</text><line style="stroke: #A80036; stroke-width: 1.5;" x1="7" x2="86" y1="213.6094" y2="213.6094"/><!--class Dog--><rect fill="#FEFECE" filter="url(#f1uixryh1cmuq1)" height="86.4141" id="Dog" style="stroke: #A80036; stroke-width: 1.5;" width="120" x="122.5" y="142"/><ellipse cx="165.85" cy="158" fill="#ADD1B2" rx="11" ry="11" style="stroke: #A80036; stroke-width: 1.0;"/><path d="M168.8188,163.6406 Q168.2406,163.9375 167.6,164.0781 Q166.9594,164.2344 166.2563,164.2344 Q163.7563,164.2344 162.4281,162.5938 Q161.1156,160.9375 161.1156,157.8125 Q161.1156,154.6875 162.4281,153.0313 Q163.7563,151.375 166.2563,151.375 Q166.9594,151.375 167.6,151.5313 Q168.2563,151.6875 168.8188,151.9844 L168.8188,154.7031 Q168.1938,154.125 167.6,153.8594 Q167.0063,153.5781 166.3813,153.5781 Q165.0375,153.5781 164.35,154.6563 Q163.6625,155.7188 163.6625,157.8125 Q163.6625,159.9063 164.35,160.9844 Q165.0375,162.0469 166.3813,162.0469 Q167.0063,162.0469 167.6,161.7813 Q168.1938,161.5 168.8188,160.9219 L168.8188,163.6406 Z "/><text fill="#000000" font-family="sans-serif" font-size="12" lengthAdjust="spacingAndGlyphs" textLength="25" x="186.15" y="162.1543">Dog</text><line style="stroke: #A80036; stroke-width: 1.5;" x1="123.5" x2="241.5" y1="174" y2="174"/><rect fill="none" height="6" style="stroke: #C82930; stroke-width: 1.0;" width="6" x="130.5" y="182.9023"/><text fill="#000000" font-family="sans-serif" font-size="11" lengthAdjust="spacingAndGlyphs" textLength="32" x="142.5" y="188.2104">name</text><line style="stroke: #A80036; stroke-width: 1.5;" x1="123.5" x2="241.5" y1="194.8047" y2="194.8047"/><ellipse cx="133.5" cy="206.707" fill="#84BE84" rx="3" ry="3" style="stroke: #038048; stroke-width: 1.0;"/><text fill="#000000" font-family="sans-serif" font-size="11" lengthAdjust="spacingAndGlyphs" textLength="69" x="142.5" y="209.0151">getSex(): Int</text><ellipse cx="133.5" cy="219.5117" fill="#84BE84" rx="3" ry="3" style="stroke: #038048; stroke-width: 1.0;"/><text fill="#000000" font-family="sans-serif" font-size="11" lengthAdjust="spacingAndGlyphs" textLength="94" x="142.5" y="221.8198">getYear(): String</text><!--link Mammifere to Person--><path d="M87.7341,100.319 C79.8477,116.324 71.4168,133.4336 64.2469,147.9843 " fill="none" id="Mammifere-Person" style="stroke: #A80036; stroke-width: 1.0;"/><polygon fill="none" points="81.5145,97.104,96.6338,82.258,94.0727,103.292,81.5145,97.104" style="stroke: #A80036; stroke-width: 1.0;"/><!--link Mammifere to Dog--><path d="M141.242,100.27 C148.012,114.01 155.185,128.5669 161.618,141.6223 " fill="none" id="Mammifere-Dog" style="stroke: #A80036; stroke-width: 1.0;"/><polygon fill="none" points="134.927,103.292,132.366,82.258,147.485,97.104,134.927,103.292" style="stroke: #A80036; stroke-width: 1.0;"/><!--
@startuml
class Mammifere {
- year
- sexe
}
class Person extends Mammifere {
- firstname
- lastname
}
class Dog extends Mammifere {
- name

+ getSex(): Int
+ getYear(): String
}
@enduml

PlantUML version 1.2018.10(Sat Aug 25 19:02:59 CEST 2018)
(APACHE source distribution)
Java Runtime: Java(TM) SE Runtime Environment
JVM: Java HotSpot(TM) 64-Bit Server VM
Java Version: 11.0.1+13-LTS
Operating System: Linux
OS Version: 4.9.0-8-amd64
Default Encoding: UTF-8
Language: fr
Country: FR
--></g></svg>