<?xml version="1.0" encoding="UTF-8" standalone="no"?><svg xmlns="http://www.w3.org/2000/svg" xmlns:xlink="http://www.w3.org/1999/xlink" contentScriptType="application/ecmascript" contentStyleType="text/css" height="385px" preserveAspectRatio="none" style="width:319px;height:385px;" version="1.1" viewBox="0 0 319 385" width="319px" zoomAndPan="magnify"><defs><filter height="300%" id="fp76ivdaoa2r4" width="300%" x="-1" y="-1"><feGaussianBlur result="blurOut" stdDeviation="2.0"/><feColorMatrix in="blurOut" result="blurOut2" type="matrix" values="0 0 0 0 0 0 0 0 0 0 0 0 0 0 0 0 0 0 .4 0"/><feOffset dx="4.0" dy="4.0" in="blurOut2" result="blurOut3"/><feBlend in="SourceGraphic" in2="blurOut3" mode="normal"/></filter></defs><g><!--class Animal--><rect fill="#FEFECE" filter="url(#fp76ivdaoa2r4)" height="124.8281" id="Animal" style="stroke: #A80036; stroke-width: 1.5;" width="120" x="140.5" y="8"/><ellipse cx="176.65" cy="24" fill="#A9DCDF" rx="11" ry="11" style="stroke: #A80036; stroke-width: 1.0;"/><path d="M176.7594,19.3438 L175.6031,24.4219 L177.9313,24.4219 L176.7594,19.3438 Z M175.275,17.1094 L178.2594,17.1094 L181.6188,29.5 L179.1656,29.5 L178.4,26.4375 L175.1188,26.4375 L174.3688,29.5 L171.9313,29.5 L175.275,17.1094 Z "/><text fill="#000000" font-family="sans-serif" font-size="12" font-style="italic" lengthAdjust="spacingAndGlyphs" textLength="41" x="195.35" y="28.1543">Animal</text><line style="stroke: #A80036; stroke-width: 1.5;" x1="141.5" x2="259.5" y1="40" y2="40"/><rect fill="none" height="6" style="stroke: #C82930; stroke-width: 1.0;" width="6" x="148.5" y="48.9023"/><text fill="#000000" font-family="sans-serif" font-size="11" lengthAdjust="spacingAndGlyphs" textLength="25" x="160.5" y="54.2104">year</text><rect fill="none" height="6" style="stroke: #C82930; stroke-width: 1.0;" width="6" x="148.5" y="61.707"/><text fill="#000000" font-family="sans-serif" font-size="11" lengthAdjust="spacingAndGlyphs" textLength="20" x="160.5" y="67.0151">sex</text><rect fill="none" height="6" style="stroke: #C82930; stroke-width: 1.0;" width="6" x="148.5" y="74.5117"/><text fill="#000000" font-family="sans-serif" font-size="11" lengthAdjust="spacingAndGlyphs" textLength="28" x="160.5" y="79.8198">color</text><line style="stroke: #A80036; stroke-width: 1.5;" x1="141.5" x2="259.5" y1="86.4141" y2="86.4141"/><ellipse cx="151.5" cy="98.3164" fill="#84BE84" rx="3" ry="3" style="stroke: #038048; stroke-width: 1.0;"/><text fill="#000000" font-family="sans-serif" font-size="11" lengthAdjust="spacingAndGlyphs" textLength="69" x="160.5" y="100.6245">getSex(): Int</text><ellipse cx="151.5" cy="111.1211" fill="#84BE84" rx="3" ry="3" style="stroke: #038048; stroke-width: 1.0;"/><text fill="#000000" font-family="sans-serif" font-size="11" lengthAdjust="spacingAndGlyphs" textLength="94" x="160.5" y="113.4292">getYear(): String</text><ellipse cx="151.5" cy="123.9258" fill="#84BE84" rx="3" ry="3" style="stroke: #038048; stroke-width: 1.0;"/><text fill="#000000" font-family="sans-serif" font-size="11" lengthAdjust="spacingAndGlyphs" textLength="86" x="160.5" y="126.2339">addYear(): void</text><!--class Mammal--><rect fill="#FEFECE" filter="url(#fp76ivdaoa2r4)" height="48" id="Mammal" style="stroke: #A80036; stroke-width: 1.5;" width="83" x="98" y="193"/><ellipse cx="113" cy="209" fill="#A9DCDF" rx="11" ry="11" style="stroke: #A80036; stroke-width: 1.0;"/><path d="M113.1094,204.3438 L111.9531,209.4219 L114.2813,209.4219 L113.1094,204.3438 Z M111.625,202.1094 L114.6094,202.1094 L117.9688,214.5 L115.5156,214.5 L114.75,211.4375 L111.4688,211.4375 L110.7188,214.5 L108.2813,214.5 L111.625,202.1094 Z "/><text fill="#000000" font-family="sans-serif" font-size="12" font-style="italic" lengthAdjust="spacingAndGlyphs" textLength="51" x="127" y="213.1543">Mammal</text><line style="stroke: #A80036; stroke-width: 1.5;" x1="99" x2="180" y1="225" y2="225"/><line style="stroke: #A80036; stroke-width: 1.5;" x1="99" x2="180" y1="233" y2="233"/><!--class Oviparous--><rect fill="#FEFECE" filter="url(#fp76ivdaoa2r4)" height="48" id="Oviparous" style="stroke: #A80036; stroke-width: 1.5;" width="92" x="216.5" y="193"/><ellipse cx="231.5" cy="209" fill="#A9DCDF" rx="11" ry="11" style="stroke: #A80036; stroke-width: 1.0;"/><path d="M231.6094,204.3438 L230.4531,209.4219 L232.7813,209.4219 L231.6094,204.3438 Z M230.125,202.1094 L233.1094,202.1094 L236.4688,214.5 L234.0156,214.5 L233.25,211.4375 L229.9688,211.4375 L229.2188,214.5 L226.7813,214.5 L230.125,202.1094 Z "/><text fill="#000000" font-family="sans-serif" font-size="12" font-style="italic" lengthAdjust="spacingAndGlyphs" textLength="60" x="245.5" y="213.1543">Oviparous</text><line style="stroke: #A80036; stroke-width: 1.5;" x1="217.5" x2="307.5" y1="225" y2="225"/><line style="stroke: #A80036; stroke-width: 1.5;" x1="217.5" x2="307.5" y1="233" y2="233"/><!--class Person--><rect fill="#FEFECE" filter="url(#fp76ivdaoa2r4)" height="73.6094" id="Person" style="stroke: #A80036; stroke-width: 1.5;" width="81" x="6" y="301"/><ellipse cx="23.25" cy="317" fill="#ADD1B2" rx="11" ry="11" style="stroke: #A80036; stroke-width: 1.0;"/><path d="M26.2188,322.6406 Q25.6406,322.9375 25,323.0781 Q24.3594,323.2344 23.6563,323.2344 Q21.1563,323.2344 19.8281,321.5938 Q18.5156,319.9375 18.5156,316.8125 Q18.5156,313.6875 19.8281,312.0313 Q21.1563,310.375 23.6563,310.375 Q24.3594,310.375 25,310.5313 Q25.6563,310.6875 26.2188,310.9844 L26.2188,313.7031 Q25.5938,313.125 25,312.8594 Q24.4063,312.5781 23.7813,312.5781 Q22.4375,312.5781 21.75,313.6563 Q21.0625,314.7188 21.0625,316.8125 Q21.0625,318.9063 21.75,319.9844 Q22.4375,321.0469 23.7813,321.0469 Q24.4063,321.0469 25,320.7813 Q25.5938,320.5 26.2188,319.9219 L26.2188,322.6406 Z "/><text fill="#000000" font-family="sans-serif" font-size="12" lengthAdjust="spacingAndGlyphs" textLength="44" x="37.75" y="321.1543">Person</text><line style="stroke: #A80036; stroke-width: 1.5;" x1="7" x2="86" y1="333" y2="333"/><rect fill="none" height="6" style="stroke: #C82930; stroke-width: 1.0;" width="6" x="14" y="341.9023"/><text fill="#000000" font-family="sans-serif" font-size="11" lengthAdjust="spacingAndGlyphs" textLength="55" x="26" y="347.2104">firstname</text><rect fill="none" height="6" style="stroke: #C82930; stroke-width: 1.0;" width="6" x="14" y="354.707"/><text fill="#000000" font-family="sans-serif" font-size="11" lengthAdjust="spacingAndGlyphs" textLength="53" x="26" y="360.0151">lastname</text><line style="stroke: #A80036; stroke-width: 1.5;" x1="7" x2="86" y1="366.6094" y2="366.6094"/><!--class Dog--><rect fill="#FEFECE" filter="url(#fp76ivdaoa2r4)" height="60.8047" id="Dog" style="stroke: #A80036; stroke-width: 1.5;" width="58" x="122.5" y="307.5"/><ellipse cx="137.95" cy="323.5" fill="#ADD1B2" rx="11" ry="11" style="stroke: #A80036; stroke-width: 1.0;"/><path d="M140.9188,329.1406 Q140.3406,329.4375 139.7,329.5781 Q139.0594,329.7344 138.3563,329.7344 Q135.8563,329.7344 134.5281,328.0938 Q133.2156,326.4375 133.2156,323.3125 Q133.2156,320.1875 134.5281,318.5313 Q135.8563,316.875 138.3563,316.875 Q139.0594,316.875 139.7,317.0313 Q140.3563,317.1875 140.9188,317.4844 L140.9188,320.2031 Q140.2938,319.625 139.7,319.3594 Q139.1063,319.0781 138.4813,319.0781 Q137.1375,319.0781 136.45,320.1563 Q135.7625,321.2188 135.7625,323.3125 Q135.7625,325.4063 136.45,326.4844 Q137.1375,327.5469 138.4813,327.5469 Q139.1063,327.5469 139.7,327.2813 Q140.2938,327 140.9188,326.4219 L140.9188,329.1406 Z "/><text fill="#000000" font-family="sans-serif" font-size="12" lengthAdjust="spacingAndGlyphs" textLength="25" x="152.05" y="327.6543">Dog</text><line style="stroke: #A80036; stroke-width: 1.5;" x1="123.5" x2="179.5" y1="339.5" y2="339.5"/><rect fill="none" height="6" style="stroke: #C82930; stroke-width: 1.0;" width="6" x="130.5" y="348.4023"/><text fill="#000000" font-family="sans-serif" font-size="11" lengthAdjust="spacingAndGlyphs" textLength="32" x="142.5" y="353.7104">name</text><line style="stroke: #A80036; stroke-width: 1.5;" x1="123.5" x2="179.5" y1="360.3047" y2="360.3047"/><!--class Gecko--><rect fill="#FEFECE" filter="url(#fp76ivdaoa2r4)" height="60.8047" id="Gecko" style="stroke: #A80036; stroke-width: 1.5;" width="71" x="227" y="307.5"/><ellipse cx="242" cy="323.5" fill="#ADD1B2" rx="11" ry="11" style="stroke: #A80036; stroke-width: 1.0;"/><path d="M244.9688,329.1406 Q244.3906,329.4375 243.75,329.5781 Q243.1094,329.7344 242.4063,329.7344 Q239.9063,329.7344 238.5781,328.0938 Q237.2656,326.4375 237.2656,323.3125 Q237.2656,320.1875 238.5781,318.5313 Q239.9063,316.875 242.4063,316.875 Q243.1094,316.875 243.75,317.0313 Q244.4063,317.1875 244.9688,317.4844 L244.9688,320.2031 Q244.3438,319.625 243.75,319.3594 Q243.1563,319.0781 242.5313,319.0781 Q241.1875,319.0781 240.5,320.1563 Q239.8125,321.2188 239.8125,323.3125 Q239.8125,325.4063 240.5,326.4844 Q241.1875,327.5469 242.5313,327.5469 Q243.1563,327.5469 243.75,327.2813 Q244.3438,327 244.9688,326.4219 L244.9688,329.1406 Z "/><text fill="#000000" font-family="sans-serif" font-size="12" lengthAdjust="spacingAndGlyphs" textLength="39" x="256" y="327.6543">Gecko</text><line style="stroke: #A80036; stroke-width: 1.5;" x1="228" x2="297" y1="339.5" y2="339.5"/><rect fill="none" height="6" style="stroke: #C82930; stroke-width: 1.0;" width="6" x="235" y="348.4023"/><text fill="#000000" font-family="sans-serif" font-size="11" lengthAdjust="spacingAndGlyphs" textLength="32" x="247" y="353.7104">name</text><line style="stroke: #A80036; stroke-width: 1.5;" x1="228" x2="297" y1="360.3047" y2="360.3047"/><!--link Animal to Mammal--><path d="M166.649,151.689 C160.268,166.803 154.086,181.449 149.236,192.936 " fill="none" id="Animal-Mammal" style="stroke: #A80036; stroke-width: 1.0;"/><polygon fill="none" points="160.226,148.903,174.454,133.2,173.124,154.348,160.226,148.903" style="stroke: #A80036; stroke-width: 1.0;"/><!--link Animal to Oviparous--><path d="M234.906,151.689 C241.391,166.803 247.675,181.449 252.604,192.936 " fill="none" id="Animal-Oviparous" style="stroke: #A80036; stroke-width: 1.0;"/><polygon fill="none" points="228.427,154.34,226.973,133.2,241.292,148.82,228.427,154.34" style="stroke: #A80036; stroke-width: 1.0;"/><!--link Mammal to Person--><path d="M108.842,257.229 C97.8905,271.242 85.6073,286.9595 74.858,300.714 " fill="none" id="Mammal-Person" style="stroke: #A80036; stroke-width: 1.0;"/><polygon fill="none" points="103.5169,252.675,121.348,241.227,114.548,261.296,103.5169,252.675" style="stroke: #A80036; stroke-width: 1.0;"/><!--link Mammal to Dog--><path d="M143.849,261.131 C145.402,276.5265 147.114,293.5071 148.525,307.4935 " fill="none" id="Mammal-Dog" style="stroke: #A80036; stroke-width: 1.0;"/><polygon fill="none" points="136.884,261.828,141.842,241.227,150.814,260.424,136.884,261.828" style="stroke: #A80036; stroke-width: 1.0;"/><!--link Oviparous to Gecko--><path d="M262.5,261.395 C262.5,276.7204 262.5,293.587 262.5,307.4935 " fill="none" id="Oviparous-Gecko" style="stroke: #A80036; stroke-width: 1.0;"/><polygon fill="none" points="255.5,261.227,262.5,241.227,269.5,261.227,255.5,261.227" style="stroke: #A80036; stroke-width: 1.0;"/><!--
@startuml

abstract class Animal {
- year
- sex
- color

+ getSex(): Int
+ getYear(): String
+ addYear(): void
}

abstract class Mammal extends Animal

abstract class Oviparous extends Animal

class Person extends Mammal {
- firstname
- lastname
}
class Dog extends Mammal {
- name
}

class Gecko extends Oviparous {
- name
}
@enduml

PlantUML version 1.2018.10(Sat Aug 25 19:02:59 CEST 2018)
(APACHE source distribution)
Java Runtime: Java(TM) SE Runtime Environment
JVM: Java HotSpot(TM) 64-Bit Server VM
Java Version: 11.0.1+13-LTS
Operating System: Linux
OS Version: 4.9.0-8-amd64
Default Encoding: UTF-8
Language: fr
Country: FR
--></g></svg>