<?xml version="1.0" encoding="UTF-8" standalone="no"?><svg xmlns="http://www.w3.org/2000/svg" xmlns:xlink="http://www.w3.org/1999/xlink" contentScriptType="application/ecmascript" contentStyleType="text/css" height="360px" preserveAspectRatio="none" style="width:244px;height:360px;" version="1.1" viewBox="0 0 244 360" width="244px" zoomAndPan="magnify"><defs><filter height="300%" id="fux9mgkh9p2y2" width="300%" x="-1" y="-1"><feGaussianBlur result="blurOut" stdDeviation="2.0"/><feColorMatrix in="blurOut" result="blurOut2" type="matrix" values="0 0 0 0 0 0 0 0 0 0 0 0 0 0 0 0 0 0 .4 0"/><feOffset dx="4.0" dy="4.0" in="blurOut2" result="blurOut3"/><feBlend in="SourceGraphic" in2="blurOut3" mode="normal"/></filter></defs><g><!--class Weapon--><rect fill="#FEFECE" filter="url(#fux9mgkh9p2y2)" height="60.8047" id="Weapon" style="stroke: #A80036; stroke-width: 1.5;" width="84" x="61.5" y="8"/><ellipse cx="76.5" cy="24" fill="#B4A7E5" rx="11" ry="11" style="stroke: #A80036; stroke-width: 1.0;"/><path d="M72.4219,19.7656 L72.4219,17.6094 L79.8125,17.6094 L79.8125,19.7656 L77.3438,19.7656 L77.3438,27.8438 L79.8125,27.8438 L79.8125,30 L72.4219,30 L72.4219,27.8438 L74.8906,27.8438 L74.8906,19.7656 L72.4219,19.7656 Z "/><text fill="#000000" font-family="sans-serif" font-size="12" font-style="italic" lengthAdjust="spacingAndGlyphs" textLength="52" x="90.5" y="28.1543">Weapon</text><line style="stroke: #A80036; stroke-width: 1.5;" x1="62.5" x2="144.5" y1="40" y2="40"/><line style="stroke: #A80036; stroke-width: 1.5;" x1="62.5" x2="144.5" y1="48" y2="48"/><ellipse cx="72.5" cy="59.9023" fill="#84BE84" rx="3" ry="3" style="stroke: #038048; stroke-width: 1.0;"/><text fill="#000000" font-family="sans-serif" font-size="11" lengthAdjust="spacingAndGlyphs" textLength="34" x="81.5" y="62.2104">choc()</text><!--class Person--><rect fill="#FEFECE" filter="url(#fux9mgkh9p2y2)" height="99.2188" id="Person" style="stroke: #A80036; stroke-width: 1.5;" width="195" x="6" y="250"/><ellipse cx="77.25" cy="266" fill="#ADD1B2" rx="11" ry="11" style="stroke: #A80036; stroke-width: 1.0;"/><path d="M80.2188,271.6406 Q79.6406,271.9375 79,272.0781 Q78.3594,272.2344 77.6563,272.2344 Q75.1563,272.2344 73.8281,270.5938 Q72.5156,268.9375 72.5156,265.8125 Q72.5156,262.6875 73.8281,261.0313 Q75.1563,259.375 77.6563,259.375 Q78.3594,259.375 79,259.5313 Q79.6563,259.6875 80.2188,259.9844 L80.2188,262.7031 Q79.5938,262.125 79,261.8594 Q78.4063,261.5781 77.7813,261.5781 Q76.4375,261.5781 75.75,262.6563 Q75.0625,263.7188 75.0625,265.8125 Q75.0625,267.9063 75.75,268.9844 Q76.4375,270.0469 77.7813,270.0469 Q78.4063,270.0469 79,269.7813 Q79.5938,269.5 80.2188,268.9219 L80.2188,271.6406 Z "/><text fill="#000000" font-family="sans-serif" font-size="12" lengthAdjust="spacingAndGlyphs" textLength="44" x="97.75" y="270.1543">Person</text><line style="stroke: #A80036; stroke-width: 1.5;" x1="7" x2="200" y1="282" y2="282"/><rect fill="none" height="6" style="stroke: #C82930; stroke-width: 1.0;" width="6" x="14" y="290.9023"/><text fill="#000000" font-family="sans-serif" font-size="11" lengthAdjust="spacingAndGlyphs" textLength="32" x="26" y="296.2104">name</text><rect fill="none" height="6" style="stroke: #C82930; stroke-width: 1.0;" width="6" x="14" y="303.707"/><text fill="#000000" font-family="sans-serif" font-size="11" lengthAdjust="spacingAndGlyphs" textLength="44" x="26" y="309.0151">weapon</text><line style="stroke: #A80036; stroke-width: 1.5;" x1="7" x2="200" y1="315.6094" y2="315.6094"/><ellipse cx="17" cy="327.5117" fill="#84BE84" rx="3" ry="3" style="stroke: #038048; stroke-width: 1.0;"/><text fill="#000000" font-family="sans-serif" font-size="11" lengthAdjust="spacingAndGlyphs" textLength="34" x="26" y="329.8198">choc()</text><ellipse cx="17" cy="340.3164" fill="#84BE84" rx="3" ry="3" style="stroke: #038048; stroke-width: 1.0;"/><text fill="#000000" font-family="sans-serif" font-size="11" lengthAdjust="spacingAndGlyphs" textLength="169" x="26" y="342.6245">setWeapon(Weapon pWeapon)</text><!--class Sword--><rect fill="#FEFECE" filter="url(#fux9mgkh9p2y2)" height="60.8047" id="Sword" style="stroke: #A80036; stroke-width: 1.5;" width="70" x="68.5" y="129"/><ellipse cx="83.5" cy="145" fill="#ADD1B2" rx="11" ry="11" style="stroke: #A80036; stroke-width: 1.0;"/><path d="M86.4688,150.6406 Q85.8906,150.9375 85.25,151.0781 Q84.6094,151.2344 83.9063,151.2344 Q81.4063,151.2344 80.0781,149.5938 Q78.7656,147.9375 78.7656,144.8125 Q78.7656,141.6875 80.0781,140.0313 Q81.4063,138.375 83.9063,138.375 Q84.6094,138.375 85.25,138.5313 Q85.9063,138.6875 86.4688,138.9844 L86.4688,141.7031 Q85.8438,141.125 85.25,140.8594 Q84.6563,140.5781 84.0313,140.5781 Q82.6875,140.5781 82,141.6563 Q81.3125,142.7188 81.3125,144.8125 Q81.3125,146.9063 82,147.9844 Q82.6875,149.0469 84.0313,149.0469 Q84.6563,149.0469 85.25,148.7813 Q85.8438,148.5 86.4688,147.9219 L86.4688,150.6406 Z "/><text fill="#000000" font-family="sans-serif" font-size="12" lengthAdjust="spacingAndGlyphs" textLength="38" x="97.5" y="149.1543">Sword</text><line style="stroke: #A80036; stroke-width: 1.5;" x1="69.5" x2="137.5" y1="161" y2="161"/><line style="stroke: #A80036; stroke-width: 1.5;" x1="69.5" x2="137.5" y1="169" y2="169"/><ellipse cx="79.5" cy="180.9023" fill="#84BE84" rx="3" ry="3" style="stroke: #038048; stroke-width: 1.0;"/><text fill="#000000" font-family="sans-serif" font-size="11" lengthAdjust="spacingAndGlyphs" textLength="34" x="88.5" y="183.2104">choc()</text><!--class Axe--><rect fill="#FEFECE" filter="url(#fux9mgkh9p2y2)" height="60.8047" id="Axe" style="stroke: #A80036; stroke-width: 1.5;" width="60" x="173.5" y="129"/><ellipse cx="191.2" cy="145" fill="#ADD1B2" rx="11" ry="11" style="stroke: #A80036; stroke-width: 1.0;"/><path d="M194.1688,150.6406 Q193.5906,150.9375 192.95,151.0781 Q192.3094,151.2344 191.6063,151.2344 Q189.1063,151.2344 187.7781,149.5938 Q186.4656,147.9375 186.4656,144.8125 Q186.4656,141.6875 187.7781,140.0313 Q189.1063,138.375 191.6063,138.375 Q192.3094,138.375 192.95,138.5313 Q193.6063,138.6875 194.1688,138.9844 L194.1688,141.7031 Q193.5438,141.125 192.95,140.8594 Q192.3563,140.5781 191.7313,140.5781 Q190.3875,140.5781 189.7,141.6563 Q189.0125,142.7188 189.0125,144.8125 Q189.0125,146.9063 189.7,147.9844 Q190.3875,149.0469 191.7313,149.0469 Q192.3563,149.0469 192.95,148.7813 Q193.5438,148.5 194.1688,147.9219 L194.1688,150.6406 Z "/><text fill="#000000" font-family="sans-serif" font-size="12" lengthAdjust="spacingAndGlyphs" textLength="22" x="205.8" y="149.1543">Axe</text><line style="stroke: #A80036; stroke-width: 1.5;" x1="174.5" x2="232.5" y1="161" y2="161"/><line style="stroke: #A80036; stroke-width: 1.5;" x1="174.5" x2="232.5" y1="169" y2="169"/><ellipse cx="184.5" cy="180.9023" fill="#84BE84" rx="3" ry="3" style="stroke: #038048; stroke-width: 1.0;"/><text fill="#000000" font-family="sans-serif" font-size="11" lengthAdjust="spacingAndGlyphs" textLength="34" x="193.5" y="183.2104">choc()</text><!--link Weapon to Person--><path d="M69.6451,86.019 C61.8021,99.268 54.5665,114.152 50.5,129 C39.2608,170.037 55.54,216.086 72.9354,249.818 " fill="none" id="Weapon-Person" style="stroke: #A80036; stroke-width: 1.0; stroke-dasharray: 7.0,7.0;"/><polygon fill="none" points="63.7899,82.182,80.476,69.121,75.5765,89.737,63.7899,82.182" style="stroke: #A80036; stroke-width: 1.0;"/><!--link Weapon to Sword--><path d="M103.5,89.329 C103.5,102.735 103.5,116.814 103.5,128.745 " fill="none" id="Weapon-Sword" style="stroke: #A80036; stroke-width: 1.0; stroke-dasharray: 7.0,7.0;"/><polygon fill="none" points="96.5001,89.222,103.5,69.222,110.5,89.222,96.5001,89.222" style="stroke: #A80036; stroke-width: 1.0;"/><!--link Weapon to Axe--><path d="M141.378,84.574 C153.796,99.352 167.276,115.394 178.496,128.745 " fill="none" id="Weapon-Axe" style="stroke: #A80036; stroke-width: 1.0; stroke-dasharray: 7.0,7.0;"/><polygon fill="none" points="135.984,89.037,128.476,69.222,146.702,80.03,135.984,89.037" style="stroke: #A80036; stroke-width: 1.0;"/><!--link Sword to Person--><path d="M103.5,203.543 C103.5,218.261 103.5,234.824 103.5,249.9464 " fill="none" id="Sword-Person" style="stroke: #A80036; stroke-width: 1.0;"/><polygon fill="#FFFFFF" points="103.5,190.104,99.5,196.104,103.5,202.104,107.5,196.104,103.5,190.104" style="stroke: #A80036; stroke-width: 1.0;"/><!--link Axe to Person--><path d="M174.272,200.834 C163.133,216.207 150.32,233.889 138.684,249.9464 " fill="none" id="Axe-Person" style="stroke: #A80036; stroke-width: 1.0;"/><polygon fill="#FFFFFF" points="182.047,190.104,175.2873,192.6153,175.0056,199.8209,181.7653,197.3096,182.047,190.104" style="stroke: #A80036; stroke-width: 1.0;"/><!--
@startuml
interface Weapon {
    + choc()
}

class Person implements Weapon {
    - name
    - weapon

    + choc()
    + setWeapon(Weapon pWeapon)
}

class Sword implements Weapon {
+ choc()
}
class Axe implements Weapon {
+ choc()
}

Sword o- - Person
Axe o- - Person
@enduml

PlantUML version 1.2018.10(Sat Aug 25 19:02:59 CEST 2018)
(APACHE source distribution)
Java Runtime: Java(TM) SE Runtime Environment
JVM: Java HotSpot(TM) 64-Bit Server VM
Java Version: 11.0.1+13-LTS
Operating System: Linux
OS Version: 4.9.0-8-amd64
Default Encoding: UTF-8
Language: fr
Country: FR
--></g></svg>