<?xml version="1.0" encoding="UTF-8" standalone="no"?><svg xmlns="http://www.w3.org/2000/svg" xmlns:xlink="http://www.w3.org/1999/xlink" contentScriptType="application/ecmascript" contentStyleType="text/css" height="385px" preserveAspectRatio="none" style="width:321px;height:385px;" version="1.1" viewBox="0 0 321 385" width="321px" zoomAndPan="magnify"><defs><filter height="300%" id="f10nyyidx9iipf" width="300%" x="-1" y="-1"><feGaussianBlur result="blurOut" stdDeviation="2.0"/><feColorMatrix in="blurOut" result="blurOut2" type="matrix" values="0 0 0 0 0 0 0 0 0 0 0 0 0 0 0 0 0 0 .4 0"/><feOffset dx="4.0" dy="4.0" in="blurOut2" result="blurOut3"/><feBlend in="SourceGraphic" in2="blurOut3" mode="normal"/></filter></defs><g><!--class Animal--><rect fill="#FEFECE" filter="url(#f10nyyidx9iipf)" height="112.0234" id="Animal" style="stroke: #A80036; stroke-width: 1.5;" width="120" x="141.5" y="8"/><ellipse cx="177.65" cy="24" fill="#ADD1B2" rx="11" ry="11" style="stroke: #A80036; stroke-width: 1.0;"/><path d="M180.6188,29.6406 Q180.0406,29.9375 179.4,30.0781 Q178.7594,30.2344 178.0563,30.2344 Q175.5563,30.2344 174.2281,28.5938 Q172.9156,26.9375 172.9156,23.8125 Q172.9156,20.6875 174.2281,19.0313 Q175.5563,17.375 178.0563,17.375 Q178.7594,17.375 179.4,17.5313 Q180.0563,17.6875 180.6188,17.9844 L180.6188,20.7031 Q179.9938,20.125 179.4,19.8594 Q178.8063,19.5781 178.1813,19.5781 Q176.8375,19.5781 176.15,20.6563 Q175.4625,21.7188 175.4625,23.8125 Q175.4625,25.9063 176.15,26.9844 Q176.8375,28.0469 178.1813,28.0469 Q178.8063,28.0469 179.4,27.7813 Q179.9938,27.5 180.6188,26.9219 L180.6188,29.6406 Z "/><text fill="#000000" font-family="sans-serif" font-size="12" lengthAdjust="spacingAndGlyphs" textLength="41" x="196.35" y="28.1543">Animal</text><line style="stroke: #A80036; stroke-width: 1.5;" x1="142.5" x2="260.5" y1="40" y2="40"/><rect fill="none" height="6" style="stroke: #C82930; stroke-width: 1.0;" width="6" x="149.5" y="48.9023"/><text fill="#000000" font-family="sans-serif" font-size="11" lengthAdjust="spacingAndGlyphs" textLength="25" x="161.5" y="54.2104">year</text><rect fill="none" height="6" style="stroke: #C82930; stroke-width: 1.0;" width="6" x="149.5" y="61.707"/><text fill="#000000" font-family="sans-serif" font-size="11" lengthAdjust="spacingAndGlyphs" textLength="20" x="161.5" y="67.0151">sex</text><line style="stroke: #A80036; stroke-width: 1.5;" x1="142.5" x2="260.5" y1="73.6094" y2="73.6094"/><ellipse cx="152.5" cy="85.5117" fill="#84BE84" rx="3" ry="3" style="stroke: #038048; stroke-width: 1.0;"/><text fill="#000000" font-family="sans-serif" font-size="11" lengthAdjust="spacingAndGlyphs" textLength="69" x="161.5" y="87.8198">getSex(): Int</text><ellipse cx="152.5" cy="98.3164" fill="#84BE84" rx="3" ry="3" style="stroke: #038048; stroke-width: 1.0;"/><text fill="#000000" font-family="sans-serif" font-size="11" lengthAdjust="spacingAndGlyphs" textLength="94" x="161.5" y="100.6245">getYear(): String</text><ellipse cx="152.5" cy="111.1211" fill="#84BE84" rx="3" ry="3" style="stroke: #038048; stroke-width: 1.0;"/><text fill="#000000" font-family="sans-serif" font-size="11" lengthAdjust="spacingAndGlyphs" textLength="86" x="161.5" y="113.4292">addYear(): void</text><!--class Mammal--><rect fill="#FEFECE" filter="url(#f10nyyidx9iipf)" height="60.8047" id="Mammal" style="stroke: #A80036; stroke-width: 1.5;" width="83" x="98" y="180"/><ellipse cx="113" cy="196" fill="#ADD1B2" rx="11" ry="11" style="stroke: #A80036; stroke-width: 1.0;"/><path d="M115.9688,201.6406 Q115.3906,201.9375 114.75,202.0781 Q114.1094,202.2344 113.4063,202.2344 Q110.9063,202.2344 109.5781,200.5938 Q108.2656,198.9375 108.2656,195.8125 Q108.2656,192.6875 109.5781,191.0313 Q110.9063,189.375 113.4063,189.375 Q114.1094,189.375 114.75,189.5313 Q115.4063,189.6875 115.9688,189.9844 L115.9688,192.7031 Q115.3438,192.125 114.75,191.8594 Q114.1563,191.5781 113.5313,191.5781 Q112.1875,191.5781 111.5,192.6563 Q110.8125,193.7188 110.8125,195.8125 Q110.8125,197.9063 111.5,198.9844 Q112.1875,200.0469 113.5313,200.0469 Q114.1563,200.0469 114.75,199.7813 Q115.3438,199.5 115.9688,198.9219 L115.9688,201.6406 Z "/><text fill="#000000" font-family="sans-serif" font-size="12" lengthAdjust="spacingAndGlyphs" textLength="51" x="127" y="200.1543">Mammal</text><line style="stroke: #A80036; stroke-width: 1.5;" x1="99" x2="180" y1="212" y2="212"/><rect fill="none" height="6" style="stroke: #C82930; stroke-width: 1.0;" width="6" x="106" y="220.9023"/><text fill="#000000" font-family="sans-serif" font-size="11" lengthAdjust="spacingAndGlyphs" textLength="28" x="118" y="226.2104">color</text><line style="stroke: #A80036; stroke-width: 1.5;" x1="99" x2="180" y1="232.8047" y2="232.8047"/><!--class Oviparous--><rect fill="#FEFECE" filter="url(#f10nyyidx9iipf)" height="60.8047" id="Oviparous" style="stroke: #A80036; stroke-width: 1.5;" width="94" x="216.5" y="180"/><ellipse cx="231.5" cy="196" fill="#ADD1B2" rx="11" ry="11" style="stroke: #A80036; stroke-width: 1.0;"/><path d="M234.4688,201.6406 Q233.8906,201.9375 233.25,202.0781 Q232.6094,202.2344 231.9063,202.2344 Q229.4063,202.2344 228.0781,200.5938 Q226.7656,198.9375 226.7656,195.8125 Q226.7656,192.6875 228.0781,191.0313 Q229.4063,189.375 231.9063,189.375 Q232.6094,189.375 233.25,189.5313 Q233.9063,189.6875 234.4688,189.9844 L234.4688,192.7031 Q233.8438,192.125 233.25,191.8594 Q232.6563,191.5781 232.0313,191.5781 Q230.6875,191.5781 230,192.6563 Q229.3125,193.7188 229.3125,195.8125 Q229.3125,197.9063 230,198.9844 Q230.6875,200.0469 232.0313,200.0469 Q232.6563,200.0469 233.25,199.7813 Q233.8438,199.5 234.4688,198.9219 L234.4688,201.6406 Z "/><text fill="#000000" font-family="sans-serif" font-size="12" lengthAdjust="spacingAndGlyphs" textLength="62" x="245.5" y="200.1543">Oviparous</text><line style="stroke: #A80036; stroke-width: 1.5;" x1="217.5" x2="309.5" y1="212" y2="212"/><rect fill="none" height="6" style="stroke: #C82930; stroke-width: 1.0;" width="6" x="224.5" y="220.9023"/><text fill="#000000" font-family="sans-serif" font-size="11" lengthAdjust="spacingAndGlyphs" textLength="28" x="236.5" y="226.2104">color</text><line style="stroke: #A80036; stroke-width: 1.5;" x1="217.5" x2="309.5" y1="232.8047" y2="232.8047"/><!--class Person--><rect fill="#FEFECE" filter="url(#f10nyyidx9iipf)" height="73.6094" id="Person" style="stroke: #A80036; stroke-width: 1.5;" width="81" x="6" y="301"/><ellipse cx="23.25" cy="317" fill="#ADD1B2" rx="11" ry="11" style="stroke: #A80036; stroke-width: 1.0;"/><path d="M26.2188,322.6406 Q25.6406,322.9375 25,323.0781 Q24.3594,323.2344 23.6563,323.2344 Q21.1563,323.2344 19.8281,321.5938 Q18.5156,319.9375 18.5156,316.8125 Q18.5156,313.6875 19.8281,312.0313 Q21.1563,310.375 23.6563,310.375 Q24.3594,310.375 25,310.5313 Q25.6563,310.6875 26.2188,310.9844 L26.2188,313.7031 Q25.5938,313.125 25,312.8594 Q24.4063,312.5781 23.7813,312.5781 Q22.4375,312.5781 21.75,313.6563 Q21.0625,314.7188 21.0625,316.8125 Q21.0625,318.9063 21.75,319.9844 Q22.4375,321.0469 23.7813,321.0469 Q24.4063,321.0469 25,320.7813 Q25.5938,320.5 26.2188,319.9219 L26.2188,322.6406 Z "/><text fill="#000000" font-family="sans-serif" font-size="12" lengthAdjust="spacingAndGlyphs" textLength="44" x="37.75" y="321.1543">Person</text><line style="stroke: #A80036; stroke-width: 1.5;" x1="7" x2="86" y1="333" y2="333"/><rect fill="none" height="6" style="stroke: #C82930; stroke-width: 1.0;" width="6" x="14" y="341.9023"/><text fill="#000000" font-family="sans-serif" font-size="11" lengthAdjust="spacingAndGlyphs" textLength="55" x="26" y="347.2104">firstname</text><rect fill="none" height="6" style="stroke: #C82930; stroke-width: 1.0;" width="6" x="14" y="354.707"/><text fill="#000000" font-family="sans-serif" font-size="11" lengthAdjust="spacingAndGlyphs" textLength="53" x="26" y="360.0151">lastname</text><line style="stroke: #A80036; stroke-width: 1.5;" x1="7" x2="86" y1="366.6094" y2="366.6094"/><!--class Dog--><rect fill="#FEFECE" filter="url(#f10nyyidx9iipf)" height="60.8047" id="Dog" style="stroke: #A80036; stroke-width: 1.5;" width="58" x="122.5" y="307.5"/><ellipse cx="137.95" cy="323.5" fill="#ADD1B2" rx="11" ry="11" style="stroke: #A80036; stroke-width: 1.0;"/><path d="M140.9188,329.1406 Q140.3406,329.4375 139.7,329.5781 Q139.0594,329.7344 138.3563,329.7344 Q135.8563,329.7344 134.5281,328.0938 Q133.2156,326.4375 133.2156,323.3125 Q133.2156,320.1875 134.5281,318.5313 Q135.8563,316.875 138.3563,316.875 Q139.0594,316.875 139.7,317.0313 Q140.3563,317.1875 140.9188,317.4844 L140.9188,320.2031 Q140.2938,319.625 139.7,319.3594 Q139.1063,319.0781 138.4813,319.0781 Q137.1375,319.0781 136.45,320.1563 Q135.7625,321.2188 135.7625,323.3125 Q135.7625,325.4063 136.45,326.4844 Q137.1375,327.5469 138.4813,327.5469 Q139.1063,327.5469 139.7,327.2813 Q140.2938,327 140.9188,326.4219 L140.9188,329.1406 Z "/><text fill="#000000" font-family="sans-serif" font-size="12" lengthAdjust="spacingAndGlyphs" textLength="25" x="152.05" y="327.6543">Dog</text><line style="stroke: #A80036; stroke-width: 1.5;" x1="123.5" x2="179.5" y1="339.5" y2="339.5"/><rect fill="none" height="6" style="stroke: #C82930; stroke-width: 1.0;" width="6" x="130.5" y="348.4023"/><text fill="#000000" font-family="sans-serif" font-size="11" lengthAdjust="spacingAndGlyphs" textLength="32" x="142.5" y="353.7104">name</text><line style="stroke: #A80036; stroke-width: 1.5;" x1="123.5" x2="179.5" y1="360.3047" y2="360.3047"/><!--class Gecko--><rect fill="#FEFECE" filter="url(#f10nyyidx9iipf)" height="60.8047" id="Gecko" style="stroke: #A80036; stroke-width: 1.5;" width="71" x="228" y="307.5"/><ellipse cx="243" cy="323.5" fill="#ADD1B2" rx="11" ry="11" style="stroke: #A80036; stroke-width: 1.0;"/><path d="M245.9688,329.1406 Q245.3906,329.4375 244.75,329.5781 Q244.1094,329.7344 243.4063,329.7344 Q240.9063,329.7344 239.5781,328.0938 Q238.2656,326.4375 238.2656,323.3125 Q238.2656,320.1875 239.5781,318.5313 Q240.9063,316.875 243.4063,316.875 Q244.1094,316.875 244.75,317.0313 Q245.4063,317.1875 245.9688,317.4844 L245.9688,320.2031 Q245.3438,319.625 244.75,319.3594 Q244.1563,319.0781 243.5313,319.0781 Q242.1875,319.0781 241.5,320.1563 Q240.8125,321.2188 240.8125,323.3125 Q240.8125,325.4063 241.5,326.4844 Q242.1875,327.5469 243.5313,327.5469 Q244.1563,327.5469 244.75,327.2813 Q245.3438,327 245.9688,326.4219 L245.9688,329.1406 Z "/><text fill="#000000" font-family="sans-serif" font-size="12" lengthAdjust="spacingAndGlyphs" textLength="39" x="257" y="327.6543">Gecko</text><line style="stroke: #A80036; stroke-width: 1.5;" x1="229" x2="298" y1="339.5" y2="339.5"/><rect fill="none" height="6" style="stroke: #C82930; stroke-width: 1.0;" width="6" x="236" y="348.4023"/><text fill="#000000" font-family="sans-serif" font-size="11" lengthAdjust="spacingAndGlyphs" textLength="32" x="248" y="353.7104">name</text><line style="stroke: #A80036; stroke-width: 1.5;" x1="229" x2="298" y1="360.3047" y2="360.3047"/><!--link Animal to Mammal--><path d="M169.793,138.898 C163.592,153.351 157.428,167.716 152.295,179.679 " fill="none" id="Animal-Mammal" style="stroke: #A80036; stroke-width: 1.0;"/><polygon fill="none" points="163.565,135.661,177.884,120.041,176.43,141.181,163.565,135.661" style="stroke: #A80036; stroke-width: 1.0;"/><!--link Animal to Oviparous--><path d="M233.207,138.898 C239.408,153.351 245.572,167.716 250.705,179.679 " fill="none" id="Animal-Oviparous" style="stroke: #A80036; stroke-width: 1.0;"/><polygon fill="none" points="226.57,141.181,225.116,120.041,239.435,135.661,226.57,141.181" style="stroke: #A80036; stroke-width: 1.0;"/><!--link Mammal to Person--><path d="M105.2374,257.736 C94.7208,271.928 83.3052,287.3328 73.3585,300.7555 " fill="none" id="Mammal-Person" style="stroke: #A80036; stroke-width: 1.0;"/><polygon fill="none" points="99.9285,253.143,117.46,241.242,111.177,261.478,99.9285,253.143" style="stroke: #A80036; stroke-width: 1.0;"/><!--link Mammal to Dog--><path d="M144.25,261.181 C145.749,276.8567 147.357,293.6706 148.677,307.4717 " fill="none" id="Mammal-Dog" style="stroke: #A80036; stroke-width: 1.0;"/><polygon fill="none" points="137.279,261.817,142.344,241.242,151.216,260.485,137.279,261.817" style="stroke: #A80036; stroke-width: 1.0;"/><!--link Oviparous to Gecko--><path d="M263.5,261.447 C263.5,277.0466 263.5,293.7486 263.5,307.4717 " fill="none" id="Oviparous-Gecko" style="stroke: #A80036; stroke-width: 1.0;"/><polygon fill="none" points="256.5,261.242,263.5,241.242,270.5,261.242,256.5,261.242" style="stroke: #A80036; stroke-width: 1.0;"/><!--
@startuml

class Animal {
- year
- sex

+ getSex(): Int
+ getYear(): String
+ addYear(): void
}

class Mammal extends Animal {
- color
}

class Oviparous extends Animal {
- color
}

class Person extends Mammal {
- firstname
- lastname
}
class Dog extends Mammal {
- name
}

class Gecko extends Oviparous {
- name
}
@enduml

PlantUML version 1.2018.10(Sat Aug 25 19:02:59 CEST 2018)
(APACHE source distribution)
Java Runtime: Java(TM) SE Runtime Environment
JVM: Java HotSpot(TM) 64-Bit Server VM
Java Version: 11.0.1+13-LTS
Operating System: Linux
OS Version: 4.9.0-8-amd64
Default Encoding: UTF-8
Language: fr
Country: FR
--></g></svg>