<?xml version="1.0" encoding="UTF-8" standalone="no"?><svg xmlns="http://www.w3.org/2000/svg" xmlns:xlink="http://www.w3.org/1999/xlink" contentScriptType="application/ecmascript" contentStyleType="text/css" height="360px" preserveAspectRatio="none" style="width:274px;height:360px;" version="1.1" viewBox="0 0 274 360" width="274px" zoomAndPan="magnify"><defs><filter height="300%" id="f1al2klzqrkc4a" width="300%" x="-1" y="-1"><feGaussianBlur result="blurOut" stdDeviation="2.0"/><feColorMatrix in="blurOut" result="blurOut2" type="matrix" values="0 0 0 0 0 0 0 0 0 0 0 0 0 0 0 0 0 0 .4 0"/><feOffset dx="4.0" dy="4.0" in="blurOut2" result="blurOut3"/><feBlend in="SourceGraphic" in2="blurOut3" mode="normal"/></filter></defs><g><!--class User--><rect fill="#FEFECE" filter="url(#f1al2klzqrkc4a)" height="73.6094" id="User" style="stroke: #A80036; stroke-width: 1.5;" width="191" x="39" y="8"/><ellipse cx="115.75" cy="24" fill="#ADD1B2" rx="11" ry="11" style="stroke: #A80036; stroke-width: 1.0;"/><path d="M118.7188,29.6406 Q118.1406,29.9375 117.5,30.0781 Q116.8594,30.2344 116.1563,30.2344 Q113.6563,30.2344 112.3281,28.5938 Q111.0156,26.9375 111.0156,23.8125 Q111.0156,20.6875 112.3281,19.0313 Q113.6563,17.375 116.1563,17.375 Q116.8594,17.375 117.5,17.5313 Q118.1563,17.6875 118.7188,17.9844 L118.7188,20.7031 Q118.0938,20.125 117.5,19.8594 Q116.9063,19.5781 116.2813,19.5781 Q114.9375,19.5781 114.25,20.6563 Q113.5625,21.7188 113.5625,23.8125 Q113.5625,25.9063 114.25,26.9844 Q114.9375,28.0469 116.2813,28.0469 Q116.9063,28.0469 117.5,27.7813 Q118.0938,27.5 118.7188,26.9219 L118.7188,29.6406 Z "/><text fill="#000000" font-family="sans-serif" font-size="12" lengthAdjust="spacingAndGlyphs" textLength="29" x="136.25" y="28.1543">User</text><line style="stroke: #A80036; stroke-width: 1.5;" x1="40" x2="229" y1="40" y2="40"/><rect fill="none" height="6" style="stroke: #C82930; stroke-width: 1.0;" width="6" x="47" y="48.9023"/><text fill="#000000" font-family="sans-serif" font-size="11" lengthAdjust="spacingAndGlyphs" textLength="151" x="59" y="54.2104">accounts: array&lt;Account&gt;</text><line style="stroke: #A80036; stroke-width: 1.5;" x1="40" x2="229" y1="60.8047" y2="60.8047"/><ellipse cx="50" cy="72.707" fill="#84BE84" rx="3" ry="3" style="stroke: #038048; stroke-width: 1.0;"/><text fill="#000000" font-family="sans-serif" font-size="11" lengthAdjust="spacingAndGlyphs" textLength="165" x="59" y="75.0151">addAccount(Account account)</text><!--class Account--><rect fill="#FEFECE" filter="url(#f1al2klzqrkc4a)" height="73.6094" id="Account" style="stroke: #A80036; stroke-width: 1.5;" width="257" x="6" y="142"/><ellipse cx="104.75" cy="158" fill="#ADD1B2" rx="11" ry="11" style="stroke: #A80036; stroke-width: 1.0;"/><path d="M107.7188,163.6406 Q107.1406,163.9375 106.5,164.0781 Q105.8594,164.2344 105.1563,164.2344 Q102.6563,164.2344 101.3281,162.5938 Q100.0156,160.9375 100.0156,157.8125 Q100.0156,154.6875 101.3281,153.0313 Q102.6563,151.375 105.1563,151.375 Q105.8594,151.375 106.5,151.5313 Q107.1563,151.6875 107.7188,151.9844 L107.7188,154.7031 Q107.0938,154.125 106.5,153.8594 Q105.9063,153.5781 105.2813,153.5781 Q103.9375,153.5781 103.25,154.6563 Q102.5625,155.7188 102.5625,157.8125 Q102.5625,159.9063 103.25,160.9844 Q103.9375,162.0469 105.2813,162.0469 Q105.9063,162.0469 106.5,161.7813 Q107.0938,161.5 107.7188,160.9219 L107.7188,163.6406 Z "/><text fill="#000000" font-family="sans-serif" font-size="12" lengthAdjust="spacingAndGlyphs" textLength="51" x="125.25" y="162.1543">Account</text><line style="stroke: #A80036; stroke-width: 1.5;" x1="7" x2="262" y1="174" y2="174"/><rect fill="none" height="6" style="stroke: #C82930; stroke-width: 1.0;" width="6" x="14" y="182.9023"/><text fill="#000000" font-family="sans-serif" font-size="11" lengthAdjust="spacingAndGlyphs" textLength="194" x="26" y="188.2104">transactions: array&lt;Transaction&gt;</text><line style="stroke: #A80036; stroke-width: 1.5;" x1="7" x2="262" y1="194.8047" y2="194.8047"/><ellipse cx="17" cy="206.707" fill="#84BE84" rx="3" ry="3" style="stroke: #038048; stroke-width: 1.0;"/><text fill="#000000" font-family="sans-serif" font-size="11" lengthAdjust="spacingAndGlyphs" textLength="231" x="26" y="209.0151">addTransaction(Transaction transaction)</text><!--class Transaction--><rect fill="#FEFECE" filter="url(#f1al2klzqrkc4a)" height="73.6094" id="Transaction" style="stroke: #A80036; stroke-width: 1.5;" width="120" x="74.5" y="276"/><ellipse cx="95.8" cy="292" fill="#ADD1B2" rx="11" ry="11" style="stroke: #A80036; stroke-width: 1.0;"/><path d="M98.7688,297.6406 Q98.1906,297.9375 97.55,298.0781 Q96.9094,298.2344 96.2063,298.2344 Q93.7063,298.2344 92.3781,296.5938 Q91.0656,294.9375 91.0656,291.8125 Q91.0656,288.6875 92.3781,287.0313 Q93.7063,285.375 96.2063,285.375 Q96.9094,285.375 97.55,285.5313 Q98.2063,285.6875 98.7688,285.9844 L98.7688,288.7031 Q98.1438,288.125 97.55,287.8594 Q96.9563,287.5781 96.3313,287.5781 Q94.9875,287.5781 94.3,288.6563 Q93.6125,289.7188 93.6125,291.8125 Q93.6125,293.9063 94.3,294.9844 Q94.9875,296.0469 96.3313,296.0469 Q96.9563,296.0469 97.55,295.7813 Q98.1438,295.5 98.7688,294.9219 L98.7688,297.6406 Z "/><text fill="#000000" font-family="sans-serif" font-size="12" lengthAdjust="spacingAndGlyphs" textLength="74" x="111.2" y="296.1543">Transaction</text><line style="stroke: #A80036; stroke-width: 1.5;" x1="75.5" x2="193.5" y1="308" y2="308"/><rect fill="none" height="6" style="stroke: #C82930; stroke-width: 1.0;" width="6" x="82.5" y="316.9023"/><text fill="#000000" font-family="sans-serif" font-size="11" lengthAdjust="spacingAndGlyphs" textLength="69" x="94.5" y="322.2104">label: String</text><rect fill="none" height="6" style="stroke: #C82930; stroke-width: 1.0;" width="6" x="82.5" y="329.707"/><text fill="#000000" font-family="sans-serif" font-size="11" lengthAdjust="spacingAndGlyphs" textLength="94" x="94.5" y="335.0151">montant: Double</text><line style="stroke: #A80036; stroke-width: 1.5;" x1="75.5" x2="193.5" y1="341.6094" y2="341.6094"/><!--link User to Account--><path d="M134.5,95.256 C134.5,110.755 134.5,127.573 134.5,141.974 " fill="none" id="User-Account" style="stroke: #A80036; stroke-width: 1.0;"/><polygon fill="#FFFFFF" points="134.5,82.07,130.5,88.07,134.5,94.07,138.5,88.07,134.5,82.07" style="stroke: #A80036; stroke-width: 1.0;"/><!--link Account to Transaction--><path d="M134.5,229.256 C134.5,244.755 134.5,261.5733 134.5,275.974 " fill="none" id="Account-Transaction" style="stroke: #A80036; stroke-width: 1.0;"/><polygon fill="#FFFFFF" points="134.5,216.07,130.5,222.07,134.5,228.07,138.5,222.07,134.5,216.07" style="stroke: #A80036; stroke-width: 1.0;"/><!--
@startuml
class User {
    - accounts: array<Account>

    + addAccount(Account account)
}

class Account {
    - transactions: array<Transaction>

    + addTransaction(Transaction transaction)
}

class Transaction {
    - label: String
    - montant: Double
}

User o- - Account
Account o- - Transaction
@enduml

PlantUML version 1.2018.10(Sat Aug 25 19:02:59 CEST 2018)
(APACHE source distribution)
Java Runtime: Java(TM) SE Runtime Environment
JVM: Java HotSpot(TM) 64-Bit Server VM
Java Version: 11.0.1+13-LTS
Operating System: Linux
OS Version: 4.9.0-8-amd64
Default Encoding: UTF-8
Language: fr
Country: FR
--></g></svg>