<?xml version="1.0" encoding="UTF-8" standalone="no"?><svg xmlns="http://www.w3.org/2000/svg" xmlns:xlink="http://www.w3.org/1999/xlink" contentScriptType="application/ecmascript" contentStyleType="text/css" height="347px" preserveAspectRatio="none" style="width:212px;height:347px;" version="1.1" viewBox="0 0 212 347" width="212px" zoomAndPan="magnify"><defs><filter height="300%" id="fl38oeq5av06j" width="300%" x="-1" y="-1"><feGaussianBlur result="blurOut" stdDeviation="2.0"/><feColorMatrix in="blurOut" result="blurOut2" type="matrix" values="0 0 0 0 0 0 0 0 0 0 0 0 0 0 0 0 0 0 .4 0"/><feOffset dx="4.0" dy="4.0" in="blurOut2" result="blurOut3"/><feBlend in="SourceGraphic" in2="blurOut3" mode="normal"/></filter></defs><g><!--class Weapon--><rect fill="#FEFECE" filter="url(#fl38oeq5av06j)" height="60.8047" id="Weapon" style="stroke: #A80036; stroke-width: 1.5;" width="84" x="61.5" y="8"/><ellipse cx="76.5" cy="24" fill="#A9DCDF" rx="11" ry="11" style="stroke: #A80036; stroke-width: 1.0;"/><path d="M76.6094,19.3438 L75.4531,24.4219 L77.7813,24.4219 L76.6094,19.3438 Z M75.125,17.1094 L78.1094,17.1094 L81.4688,29.5 L79.0156,29.5 L78.25,26.4375 L74.9688,26.4375 L74.2188,29.5 L71.7813,29.5 L75.125,17.1094 Z "/><text fill="#000000" font-family="sans-serif" font-size="12" font-style="italic" lengthAdjust="spacingAndGlyphs" textLength="52" x="90.5" y="28.1543">Weapon</text><line style="stroke: #A80036; stroke-width: 1.5;" x1="62.5" x2="144.5" y1="40" y2="40"/><line style="stroke: #A80036; stroke-width: 1.5;" x1="62.5" x2="144.5" y1="48" y2="48"/><ellipse cx="72.5" cy="59.9023" fill="#84BE84" rx="3" ry="3" style="stroke: #038048; stroke-width: 1.0;"/><text fill="#000000" font-family="sans-serif" font-size="11" lengthAdjust="spacingAndGlyphs" textLength="34" x="81.5" y="62.2104">choc()</text><!--class Person--><rect fill="#FEFECE" filter="url(#fl38oeq5av06j)" height="99.2188" id="Person" style="stroke: #A80036; stroke-width: 1.5;" width="195" x="6" y="237"/><ellipse cx="77.25" cy="253" fill="#ADD1B2" rx="11" ry="11" style="stroke: #A80036; stroke-width: 1.0;"/><path d="M80.2188,258.6406 Q79.6406,258.9375 79,259.0781 Q78.3594,259.2344 77.6563,259.2344 Q75.1563,259.2344 73.8281,257.5938 Q72.5156,255.9375 72.5156,252.8125 Q72.5156,249.6875 73.8281,248.0313 Q75.1563,246.375 77.6563,246.375 Q78.3594,246.375 79,246.5313 Q79.6563,246.6875 80.2188,246.9844 L80.2188,249.7031 Q79.5938,249.125 79,248.8594 Q78.4063,248.5781 77.7813,248.5781 Q76.4375,248.5781 75.75,249.6563 Q75.0625,250.7188 75.0625,252.8125 Q75.0625,254.9063 75.75,255.9844 Q76.4375,257.0469 77.7813,257.0469 Q78.4063,257.0469 79,256.7813 Q79.5938,256.5 80.2188,255.9219 L80.2188,258.6406 Z "/><text fill="#000000" font-family="sans-serif" font-size="12" lengthAdjust="spacingAndGlyphs" textLength="44" x="97.75" y="257.1543">Person</text><line style="stroke: #A80036; stroke-width: 1.5;" x1="7" x2="200" y1="269" y2="269"/><rect fill="none" height="6" style="stroke: #C82930; stroke-width: 1.0;" width="6" x="14" y="277.9023"/><text fill="#000000" font-family="sans-serif" font-size="11" lengthAdjust="spacingAndGlyphs" textLength="32" x="26" y="283.2104">name</text><rect fill="none" height="6" style="stroke: #C82930; stroke-width: 1.0;" width="6" x="14" y="290.707"/><text fill="#000000" font-family="sans-serif" font-size="11" lengthAdjust="spacingAndGlyphs" textLength="44" x="26" y="296.0151">weapon</text><line style="stroke: #A80036; stroke-width: 1.5;" x1="7" x2="200" y1="302.6094" y2="302.6094"/><ellipse cx="17" cy="314.5117" fill="#84BE84" rx="3" ry="3" style="stroke: #038048; stroke-width: 1.0;"/><text fill="#000000" font-family="sans-serif" font-size="11" lengthAdjust="spacingAndGlyphs" textLength="34" x="26" y="316.8198">choc()</text><ellipse cx="17" cy="327.3164" fill="#84BE84" rx="3" ry="3" style="stroke: #038048; stroke-width: 1.0;"/><text fill="#000000" font-family="sans-serif" font-size="11" lengthAdjust="spacingAndGlyphs" textLength="169" x="26" y="329.6245">setWeapon(Weapon pWeapon)</text><!--class Sword--><rect fill="#FEFECE" filter="url(#fl38oeq5av06j)" height="48" id="Sword" style="stroke: #A80036; stroke-width: 1.5;" width="70" x="20.5" y="129"/><ellipse cx="35.5" cy="145" fill="#ADD1B2" rx="11" ry="11" style="stroke: #A80036; stroke-width: 1.0;"/><path d="M38.4688,150.6406 Q37.8906,150.9375 37.25,151.0781 Q36.6094,151.2344 35.9063,151.2344 Q33.4063,151.2344 32.0781,149.5938 Q30.7656,147.9375 30.7656,144.8125 Q30.7656,141.6875 32.0781,140.0313 Q33.4063,138.375 35.9063,138.375 Q36.6094,138.375 37.25,138.5313 Q37.9063,138.6875 38.4688,138.9844 L38.4688,141.7031 Q37.8438,141.125 37.25,140.8594 Q36.6563,140.5781 36.0313,140.5781 Q34.6875,140.5781 34,141.6563 Q33.3125,142.7188 33.3125,144.8125 Q33.3125,146.9063 34,147.9844 Q34.6875,149.0469 36.0313,149.0469 Q36.6563,149.0469 37.25,148.7813 Q37.8438,148.5 38.4688,147.9219 L38.4688,150.6406 Z "/><text fill="#000000" font-family="sans-serif" font-size="12" lengthAdjust="spacingAndGlyphs" textLength="38" x="49.5" y="149.1543">Sword</text><line style="stroke: #A80036; stroke-width: 1.5;" x1="21.5" x2="89.5" y1="161" y2="161"/><line style="stroke: #A80036; stroke-width: 1.5;" x1="21.5" x2="89.5" y1="169" y2="169"/><!--class Axe--><rect fill="#FEFECE" filter="url(#fl38oeq5av06j)" height="48" id="Axe" style="stroke: #A80036; stroke-width: 1.5;" width="54" x="125.5" y="129"/><ellipse cx="140.5" cy="145" fill="#ADD1B2" rx="11" ry="11" style="stroke: #A80036; stroke-width: 1.0;"/><path d="M143.4688,150.6406 Q142.8906,150.9375 142.25,151.0781 Q141.6094,151.2344 140.9063,151.2344 Q138.4063,151.2344 137.0781,149.5938 Q135.7656,147.9375 135.7656,144.8125 Q135.7656,141.6875 137.0781,140.0313 Q138.4063,138.375 140.9063,138.375 Q141.6094,138.375 142.25,138.5313 Q142.9063,138.6875 143.4688,138.9844 L143.4688,141.7031 Q142.8438,141.125 142.25,140.8594 Q141.6563,140.5781 141.0313,140.5781 Q139.6875,140.5781 139,141.6563 Q138.3125,142.7188 138.3125,144.8125 Q138.3125,146.9063 139,147.9844 Q139.6875,149.0469 141.0313,149.0469 Q141.6563,149.0469 142.25,148.7813 Q142.8438,148.5 143.4688,147.9219 L143.4688,150.6406 Z "/><text fill="#000000" font-family="sans-serif" font-size="12" lengthAdjust="spacingAndGlyphs" textLength="22" x="154.5" y="149.1543">Axe</text><line style="stroke: #A80036; stroke-width: 1.5;" x1="126.5" x2="178.5" y1="161" y2="161"/><line style="stroke: #A80036; stroke-width: 1.5;" x1="126.5" x2="178.5" y1="169" y2="169"/><!--link Weapon to Sword--><path d="M82.9556,87.651 C76.8918,101.863 70.5275,116.779 65.4547,128.669 " fill="none" id="Weapon-Sword" style="stroke: #A80036; stroke-width: 1.0;"/><polygon fill="none" points="76.6013,84.707,90.8886,69.058,89.4782,90.201,76.6013,84.707" style="stroke: #A80036; stroke-width: 1.0;"/><!--link Weapon to Axe--><path d="M124.472,87.651 C130.663,101.863 137.159,116.779 142.338,128.669 " fill="none" id="Weapon-Axe" style="stroke: #A80036; stroke-width: 1.0;"/><polygon fill="none" points="117.943,90.19,116.374,69.058,130.778,84.599,117.943,90.19" style="stroke: #A80036; stroke-width: 1.0;"/><!--link Sword to Person--><path d="M68.5467,189.743 C73.8518,204.276 80.0659,221.3 85.7715,236.9312 " fill="none" id="Sword-Person" style="stroke: #A80036; stroke-width: 1.0;"/><polygon fill="#FFFFFF" points="63.9709,177.207,62.2705,184.2148,68.0852,188.4796,69.7856,181.4719,63.9709,177.207" style="stroke: #A80036; stroke-width: 1.0;"/><!--link Axe to Person--><path d="M139.181,189.743 C133.766,204.276 127.422,221.3 121.598,236.9312 " fill="none" id="Axe-Person" style="stroke: #A80036; stroke-width: 1.0;"/><polygon fill="#FFFFFF" points="143.853,177.207,138.0099,181.4329,139.6634,188.4519,145.5065,184.226,143.853,177.207" style="stroke: #A80036; stroke-width: 1.0;"/><!--
@startuml
abstract class Weapon {
    + choc()
}

class Person {
    - name
    - weapon

    + choc()
    + setWeapon(Weapon pWeapon)
}

class Sword extends Weapon {
}
class Axe extends Weapon {
}

Sword o- - Person
Axe o- - Person
@enduml

PlantUML version 1.2018.10(Sat Aug 25 19:02:59 CEST 2018)
(APACHE source distribution)
Java Runtime: Java(TM) SE Runtime Environment
JVM: Java HotSpot(TM) 64-Bit Server VM
Java Version: 11.0.1+13-LTS
Operating System: Linux
OS Version: 4.9.0-8-amd64
Default Encoding: UTF-8
Language: fr
Country: FR
--></g></svg>